<svg xmlns="http://www.w3.org/2000/svg" viewBox="0 0 31 44"><path d="M29 15h2v-2.9l-2-.1v3zm0 27H2V2h18V0H0v44h31v-7h-2v5zM24 0h-2v10h9V8l-7-8zm0 8V3.3L28.2 8H24z" fill-rule="evenodd" clip-rule="evenodd" fill="#282d33"/><path fill="#0093d6" d="M5 17h26v18H5z"/><path fill-rule="evenodd" clip-rule="evenodd" fill="#0093d6" d="M7 6L5 7.9V10h6l2-2V6z"/><path d="M10.5 22.1H8.1V30h2.2c1.4 0 2.5-.3 3.2-1s1.1-1.7 1.1-3c0-1.2-.4-2.2-1.1-2.8s-1.7-1.1-3-1.1zm-.1 6.5h-.7v-5.1h.9c1.5 0 2.2.8 2.2 2.5.1 1.7-.7 2.6-2.4 2.6zm8.2-6.6c-1.2 0-2.1.3-2.8 1-.6.7-1 1.7-1 3s.3 2.3 1 3 1.6 1 2.8 1 2.1-.3 2.8-1 1-1.7 1-3-.3-2.3-1-3c-.7-.7-1.6-1-2.8-1zm0 6.7c-.7 0-1.2-.2-1.5-.7-.3-.4-.5-1.1-.5-2 0-.9.2-1.5.5-2 .3-.4.8-.7 1.5-.7 1.3 0 2 .9 2 2.7 0 1.8-.7 2.7-2 2.7zm5.7-2.7c0-.8.2-1.5.5-2s.8-.7 1.5-.7c.3 0 .6.1.9.2.3.1.6.2.9.4l.5-1.4c-.8-.4-1.5-.6-2.3-.6-.7 0-1.4.2-2 .5-.6.3-1 .8-1.3 1.4-.3.6-.4 1.3-.4 2.1 0 1.3.3 2.3.9 3 .6.7 1.5 1 2.6 1 .8 0 1.5-.1 2.2-.4v-1.4c-.8.3-1.5.4-2 .4-1.3.2-2-.7-2-2.5z" fill-rule="evenodd" clip-rule="evenodd" fill="#fff"/></svg>