<svg xmlns="http://www.w3.org/2000/svg" viewBox="0 0 31 44"><g fill="#1d1d1b"><path d="M29 42H2V2h18.1V0H0v44h31v-7.1h-2zm0-30.1h2V15h-2z"/><path d="M24 0h-2v10h9V8l-7-8zm-.1 7.9V2.6l4.8 5.3h-4.8z"/></g><path fill="#59c782" d="M13 6H7L5 7.9V10h6l2-2.1zM5 16.8h26v18H5z"/><path d="M13.6 28.4l-1.5-2.1-1.5 2.1H9l2.3-3.1-2.2-3h1.6l1.4 2 1.4-2H15l-2.2 3 2.3 3.2h-1.5zm2.2-6.2h1.4v5h3.1v1.2h-4.5v-6.2zm6 6.1c-.5-.1-.8-.3-1.1-.5l.5-1.1c.3.2.6.3.9.5s.7.2 1.1.2c.4 0 .7-.1.9-.2.2-.1.3-.3.3-.5 0-.1-.1-.3-.2-.4-.1-.1-.3-.2-.4-.2-.2-.1-.5-.1-.8-.2-.5-.1-.9-.2-1.2-.3-.3-.1-.6-.3-.8-.5s-.3-.6-.3-1 .1-.7.3-1c.2-.3.5-.5.9-.7s.9-.3 1.4-.3c.4 0 .8 0 1.2.1.4.1.7.2 1 .4l-.4 1.1c-.6-.3-1.1-.5-1.7-.5-.4 0-.7.1-.9.2-.2.1-.3.3-.3.5s.1.4.3.5c.2.1.6.2 1 .3.5.1.9.2 1.2.3.3.1.6.3.8.5s.3.6.3 1-.1.7-.3 1c-.2.3-.5.5-.9.7s-.9.3-1.4.3c-.5 0-1-.1-1.4-.2z" fill="#fff"/></svg>