<svg xmlns="http://www.w3.org/2000/svg" xmlns:xlink="http://www.w3.org/1999/xlink" width="72" height="74" viewBox="0 0 72 74"><defs><path id="w23ka" d="M298 998c6.95 0 13.42 1.45 18.8 4.16.1 7.09-.39 16.95-5.8 29.84-4.55 10.83-13.65 17.4-20.35 21.49a42.11 42.11 0 0 1-7.82-1.88L281 1058h-8v-11.84a24.4 24.4 0 0 1-6.87-9.16H260v-17h4.6a24.53 24.53 0 0 1 8.4-14.1V995l8.74 5.82A45.15 45.15 0 0 1 298 998zm-26 21.5a2.5 2.5 0 1 0 5 0 2.5 2.5 0 0 0-5 0zm13-15.5a1 1 0 0 0 1 1s5.97-2 11.7-2c5.25 0 10.3 2 10.3 2a1 1 0 1 0 0-2s-5-2-10.22-2c-5.75 0-11.78 2-11.78 2a1 1 0 0 0-1 1zm13-20a5 5 0 1 1 0 10 5 5 0 0 1 0-10z"/><path id="w23kd" d="M298 996v-14h8v14z"/><path id="w23ke" d="M281 1058l5-18 7 14z"/><path id="w23kb" d="M315 995s1.63-3.27 3-3c2.12.42 3 11 3 11s.29 1.72 1 2c.9.35 2 0 2 0s2.03-.39 2-2c-.04-2.17-2-2-2-2s-2.8-1.2-2-3c1.14-2.55 5-1 5-1s2.85 1.22 3 6c.1 3.49-4 6-4 6s7.06 7.93 6 19c-1.32 13.81-9 18-9 18v12h-8l-2-6s-3.35 1.54-7 2c-4.3.54-9 0-9 0s-6.79 3.84-10 4c-2 .1 0-3 0-3s-1.02 2.61 1 2c5.35-1.63 18.55-8.33 26-27 8.05-20.17 4.61-34.12 4-36-.64-1.95-3 1-3 1z"/><path id="w23kg" d="M296 1055s4.43-2.69 8-6c3.43-3.19 6-7 6-7l5 15-12 4z"/><path id="w23kh" d="M323 1058l-1-26 8 13z"/><clipPath id="w23kc"><use xlink:href="#w23ka"/></clipPath><clipPath id="w23kf"><use xlink:href="#w23kb"/></clipPath></defs><g><g transform="translate(-260 -984)"><g><use fill="#0627e7" xlink:href="#w23ka"/></g><g clip-path="url(#w23kc)"><use fill="#0625a4" xlink:href="#w23kd"/></g><g clip-path="url(#w23kc)"><use fill="#0625a4" xlink:href="#w23ke"/></g><g><use fill="#e31c3e" xlink:href="#w23kb"/></g><g clip-path="url(#w23kf)"><use fill="#c51433" xlink:href="#w23kg"/></g><g clip-path="url(#w23kf)"><use fill="#c51433" xlink:href="#w23kh"/></g></g></g></svg>