<svg xmlns="http://www.w3.org/2000/svg" xmlns:xlink="http://www.w3.org/1999/xlink" width="81" height="79" viewBox="0 0 81 79"><defs><path id="mtppa" d="M632.83 995.66c1.3 4.27-5.7 12.32-5.7 12.32s-1.87 18.86-9.52 31.3c-9.75 15.83-24.25 23.7-24.25 23.7s-6.03-2.94-11.4-7.59a78 78 0 0 1-10-10.9s-6.01 1.45-10.34.91a5.45 5.45 0 1 1-3.78-8.97 31.47 31.47 0 0 1 4.62-7.59s-2.72 3.95-3.84 7.7a5.46 5.46 0 0 1 4.15 6.64c12.08.55 35.79-12.1 43.9-18.6 44.22-35.43 15.7-32.24 15.7-32.24s9.13-1.06 10.46 3.32z"/><path id="mtppd" d="M572.43 1044.92s5.97-.94 12.11-3.76c20.23-9.27 34.81-24.07 34.81-24.07s-7.6 8.4-15.89 15.8c-6.77 6.04-14.46 10.91-15.13 14.3-2.1 10.43 5.3 15.79 5.3 15.79s-7.66.49-12.87-3.76c-5.38-4.4-8.33-14.3-8.33-14.3z"/><path id="mtppb" d="M559.6 1003.72s10.34-3.12 19.98-8.54a71.7 71.7 0 0 0 10-7.12 3.8 3.8 0 0 1 7.58.4 53.22 53.22 0 0 0 9.04 6.72c9.3 5.24 19.97 8.06 19.97 8.06s-10.58 12.06-23.77 20.39c-15.2 9.6-33.28 15.64-33.28 15.64s-4.26-8.08-6.66-17.06c-2.35-8.8-2.85-18.5-2.85-18.5z"/><path id="mtppf" d="M570.54 984c8.15 0 2.68 6.2 4.16 31.6 1.95 33.12 21.02 45.87 12.87 45.87s-31.79-24.93-31.79-43.62c0-18.7 6.61-33.85 14.76-33.85z"/><clipPath id="mtppc"><use xlink:href="#mtppa"/></clipPath><clipPath id="mtppe"><use xlink:href="#mtppb"/></clipPath></defs><g><g transform="translate(-552 -984)"><use fill="#e31c3e" xlink:href="#mtppa"/></g><g clip-path="url(#mtppc)" transform="translate(-552 -984)"><use fill="#c51433" xlink:href="#mtppd"/></g><g transform="translate(-552 -984)"><use fill="#0627e7" xlink:href="#mtppb"/></g><g clip-path="url(#mtppe)" transform="translate(-552 -984)"><use fill="#0625a4" xlink:href="#mtppf"/></g></g></svg>