<svg xmlns="http://www.w3.org/2000/svg" xmlns:xlink="http://www.w3.org/1999/xlink" width="59" height="79" viewBox="0 0 59 79"><defs><path id="w2o7a" d="M1528.66 1019.47c1 3.45-.62 7.13-.62 7.13s-1.43 15.22-7.34 25.25c-7.54 12.79-18.74 19.13-18.74 19.13s-4.66-2.37-8.82-6.12c-4.1-3.71-7.71-8.8-7.71-8.8s-4.66 1.17-8 .74a4.14 4.14 0 0 1-3.2 1.54 4.32 4.32 0 0 1-4.23-4.4 4.32 4.32 0 0 1 4.52-4.4 25.61 25.61 0 0 1 3.56-6.1s-2.09 3.17-2.96 6.19c1.9.43 3.33 2.2 3.33 4.3 0 .37-.05.73-.13 1.07 5.33.26 13.6-2.92 20.86-6.7l-.73 5.83h7.58l-1.14-9.02a57.56 57.56 0 0 0 7.36-5.12c29.11-25.05 8.33-23.2 8.33-23.2s7.05-.85 8.08 2.68z"/><path id="w2o7d" d="M1485.79 1056.41s4.6-.76 9.35-3.03c15.63-7.48 26.9-19.42 26.9-19.42s-5.87 6.77-12.28 12.74c-5.23 4.88-11.17 8.8-11.7 11.53-1.61 8.43 4.1 12.75 4.1 12.75s-5.91.4-9.94-3.03c-4.16-3.55-6.43-11.54-6.43-11.54z"/><path id="w2o7b" d="M1478.53 1023.19s1.54-1.12 4.75-2.36v-12.17a16.5 16.5 0 0 1 16.59-16.4h3.8a16.5 16.5 0 0 1 16.59 16.4V1021.13c2.46 1.11 3.8 2.06 3.8 2.06s-4.93 9.32-15.12 16.04c-1.4.92-2.84 1.81-4.28 2.65l-.28-2.47a3.73 3.73 0 0 0-2.14-6.85 3.73 3.73 0 1 0-2.14 6.85l-.6 5.3c-8.68 4.5-16.27 7.14-16.27 7.14s-3.3-6.52-5.15-13.77c-1.81-7.1.45-14.9.45-14.9zm9.49-14.06v10.3s6.37-1.87 14.22-1.87c7.86 0 13.28 1.88 13.28 1.88v-10.31c0-7.77-5.42-12.2-13.28-12.2-7.85 0-14.22 4.43-14.22 12.2z"/><path id="w2o7f" d="M1498.5 989.53c2.66-1.13 4.14-.1 1.84-.1-.62 0-1.24.04-1.84.1zm-10.96 43.21c1.6 26.73 16.24 37.03 9.94 37.03-6.3 0-24.56-20.12-24.56-35.2 0-14.6 7.8-43.18 25.58-45.04-3.82 1.64-10.08 7.78-11.1 27.98 4.27-1.86 9.6-3.59 14.84-3.7 10.6-.22 20.86 7.5 20.86 7.5s-13.9-1.91-25.6 0a58.73 58.73 0 0 0-10.25 2.73c.01 2.7.1 5.59.3 8.7z"/><clipPath id="w2o7c"><use xlink:href="#w2o7a"/></clipPath><clipPath id="w2o7e"><use xlink:href="#w2o7b"/></clipPath></defs><g><g transform="translate(-1470 -992)"><use fill="#e31c3e" xlink:href="#w2o7a"/></g><g clip-path="url(#w2o7c)" transform="translate(-1470 -992)"><use fill="#c51433" xlink:href="#w2o7d"/></g><g transform="translate(-1470 -992)"><use fill="#0627e7" xlink:href="#w2o7b"/></g><g clip-path="url(#w2o7e)" transform="translate(-1470 -992)"><use fill="#0625a4" xlink:href="#w2o7f"/></g></g></svg>