<svg xmlns="http://www.w3.org/2000/svg" xmlns:xlink="http://www.w3.org/1999/xlink" width="304" height="352" viewBox="0 0 304 352"><defs><path id="eqd4a" d="M177 1587.6v-181.19h.1l151.9-85.4 151.9 85.4h.1v181.19h-.11L329 1673l-151.89-85.4z"/><path id="eqd4b" d="M328.5 1389.01c6.1 0 24.77 30.57 24.77 68.28 0 12.96-2.93 22.33-6.77 29.05h-36c-3.84-6.72-6.76-16.09-6.76-29.05 0-37.71 19.05-68.28 24.76-68.28zm-10.21 35.61c0 6.03 4.9 10.92 10.95 10.92 6.06 0 10.96-4.89 10.96-10.92 0-6.02-4.9-10.9-10.96-10.9a10.94 10.94 0 0 0-10.95 10.9zm-24.75 66.08l8.74-21.8s-.03 5.35 1.46 10.18a34.77 34.77 0 0 0 4.37 8.71l-11.66 8.72s-3.7 2.78-4.37 1.45c-.78-1.56 1.46-7.26 1.46-7.26zm71.38 7.26c-.67 1.33-4.37-1.45-4.37-1.45l-11.65-8.72s2.94-4.1 4.37-8.71c1.49-4.83 1.45-10.17 1.45-10.17l8.74 21.79s2.24 5.7 1.46 7.26z"/><path id="eqd4c" d="M177 1511.03l61.18 29.06s6.59-2.17 13.11 0c6.32 2.1 12.83 11.13 12.83 11.13s5.34-14.51 22.28-11.94c12.49 1.9 14.88 13.07 15.32 18.07a11.88 11.88 0 0 1 14.99-3.89c.54-1.46 1.07-3.01 1.6-4.66 6.63-20.92-4.38-47.93-4.38-47.93l14.57 8.71 14.57-8.71s-8.78 21.8-4.49 42.24a32.31 32.31 0 0 1 14.64-3.83c11.46-.42 23.82 5.48 27.51 13.33.53-1.65 3.1-9.1 6.75-11.62 6.08-4.2 15.54-.02 16.66.5-.64-.52-1-1.45-1-2.99 0-6.6 5.36-11.97 11.97-11.97 2.69 0 5.06.9 6.97 2.4a5.9 5.9 0 0 1 9.53-.31l.32-.15 48.07-18.2L327.52 1599l-149.06-87.03"/></defs><g><g transform="translate(-177 -1321)"><use fill="#ededed" xlink:href="#eqd4a"/></g><g transform="translate(-177 -1321)"><use fill="#fff" xlink:href="#eqd4b"/></g><g transform="translate(-177 -1321)"><use fill="#fff" xlink:href="#eqd4c"/></g></g></svg>