<svg xmlns="http://www.w3.org/2000/svg" viewBox="0 0 31 44"><g fill="#1d1d1b"><path d="M29 42H2V2h18.1V0H0v44h31v-7.1h-2zm0-30.1h2V15h-2z"/><path d="M24 0h-2v10h9V8l-7-8zm-.1 7.9V2.6l4.8 5.3h-4.8z"/></g><path fill="#0093d6" d="M13 6H7L5 7.9V10h6l2-2.1z"/><path fill="#1d1d1b" d="M5 16.8h26v18H5z"/><path d="M13.2 22.5c.4.2.7.4.9.8.2.3.3.7.3 1.2s-.1.8-.3 1.2c-.2.3-.5.6-.9.8s-.9.3-1.4.3h-1.2v1.7H9.1v-6.2h2.7c.5-.1 1 0 1.4.2zm-.5 2.7c.2-.2.3-.4.3-.8 0-.3-.1-.6-.3-.8s-.6-.3-1-.3h-1.2v2.1h1.2c.4.1.8 0 1-.2zm2.8-3h2.8c.7 0 1.3.1 1.8.4.5.3.9.6 1.2 1.1.3.5.4 1 .4 1.6 0 .6-.1 1.2-.4 1.6-.3.5-.7.8-1.2 1.1-.5.3-1.1.4-1.8.4h-2.8v-6.2zm2.7 5c.6 0 1.1-.2 1.5-.5s.6-.8.6-1.4-.2-1.1-.6-1.4-.9-.5-1.5-.5h-1.3v3.8h1.3zm6-3.8V25h2.9v1.1h-2.9v2.3h-1.4v-6.2h4.7v1.1h-3.3z" fill="#fff"/></svg>