<?xml version="1.0" encoding="utf-8"?>
<!-- Generator: Adobe Illustrator 22.1.0, SVG Export Plug-In . SVG Version: 6.00 Build 0)  -->
<svg version="1.1" id="Слой_1" xmlns="http://www.w3.org/2000/svg" xmlns:xlink="http://www.w3.org/1999/xlink" x="0px" y="0px"
	 viewBox="0 0 31 44" style="enable-background:new 0 0 31 44;" xml:space="preserve">
<g>
	<g>
		<g>
			<polygon style="fill:#1D1D1B;" points="29,42 2,42 2,2 20.1,2 20.1,0 0,0 0,44 31,44 31,36.9 29,36.9 			"/>
			<rect x="29" y="11.9" style="fill:#1D1D1B;" width="2" height="3.1"/>
		</g>
		<path style="fill:#1D1D1B;" d="M24,0h-2v10h9V8L24,0z M23.9,7.9V2.6l4.8,5.3H23.9z"/>
	</g>
	<rect x="5" y="16.8" style="fill:#59C782;" width="26" height="18"/>
	<g>
		<path style="fill:#FFFFFF;" d="M13.6,28.4l-1.5-2.1l-1.5,2.1H9l2.3-3.1l-2.2-3h1.6l1.4,2l1.4-2H15l-2.2,3l2.3,3.2h-1.5V28.4z"/>
		<path style="fill:#FFFFFF;" d="M15.8,22.2h1.4v5h3.1v1.2h-4.5C15.8,28.4,15.8,22.2,15.8,22.2z"/>
		<path style="fill:#FFFFFF;" d="M21.8,28.3c-0.5-0.1-0.8-0.3-1.1-0.5l0.5-1.1c0.3,0.2,0.6,0.3,0.9,0.5s0.7,0.2,1.1,0.2
			s0.7-0.1,0.9-0.2c0.2-0.1,0.3-0.3,0.3-0.5c0-0.1-0.1-0.3-0.2-0.4s-0.3-0.2-0.4-0.2C23.6,26,23.3,26,23,25.9
			c-0.5-0.1-0.9-0.2-1.2-0.3c-0.3-0.1-0.6-0.3-0.8-0.5s-0.3-0.6-0.3-1s0.1-0.7,0.3-1c0.2-0.3,0.5-0.5,0.9-0.7s0.9-0.3,1.4-0.3
			c0.4,0,0.8,0,1.2,0.1c0.4,0.1,0.7,0.2,1,0.4l-0.4,1.1c-0.6-0.3-1.1-0.5-1.7-0.5c-0.4,0-0.7,0.1-0.9,0.2c-0.2,0.1-0.3,0.3-0.3,0.5
			s0.1,0.4,0.3,0.5c0.2,0.1,0.6,0.2,1,0.3c0.5,0.1,0.9,0.2,1.2,0.3c0.3,0.1,0.6,0.3,0.8,0.5s0.3,0.6,0.3,1s-0.1,0.7-0.3,1
			c-0.2,0.3-0.5,0.5-0.9,0.7s-0.9,0.3-1.4,0.3S22.2,28.4,21.8,28.3z"/>
	</g>
</g>
</svg>
