<?xml version="1.0" encoding="utf-8"?>
<!-- Generator: Adobe Illustrator 22.1.0, SVG Export Plug-In . SVG Version: 6.00 Build 0)  -->
<svg version="1.1" id="Layer_1" xmlns="http://www.w3.org/2000/svg" xmlns:xlink="http://www.w3.org/1999/xlink" x="0px" y="0px"
	 viewBox="0 0 120 174" style="enable-background:new 0 0 120 174;" xml:space="preserve">
<g>
	<path style="fill-rule:evenodd;clip-rule:evenodd;fill:#E41C3F;" d="M31,71.3c-0.4,12.5,2,23.6,8.8,38.4l38.4,0.1
		c5.5-11.8,7.7-21.3,8-30.9C75.4,78.3,49.7,76.6,31,71.3z"/>
	<path style="fill-rule:evenodd;clip-rule:evenodd;fill:#E41C3F;" d="M86,70.7c-0.5-7.1-1.8-14.7-3.5-23.6
		c-1.6-8.4-13.8-46.9-23.9-47C49.2,0.1,36,38.5,34.3,46.9C33,53.4,32,59.1,31.5,64.4C44.1,68.2,68.6,71,86,70.7z"/>
</g>
<path style="fill-rule:evenodd;clip-rule:evenodd;fill:#0726A5;" d="M45.2,109.4l-2.5,4.7c9.4,0,23.2,0.1,32.6,0.1l-2.4-4.7
	C65.2,109.5,52.9,109.4,45.2,109.4L45.2,109.4z"/>
<path style="fill-rule:evenodd;clip-rule:evenodd;fill:#FFFFFF;" d="M59.1,27.3c6.9,0,12.5,5.7,12.5,12.6c0,6.9-5.7,12.5-12.6,12.5
	c-6.9,0-12.6-5.7-12.5-12.6C46.5,32.9,52.1,27.3,59.1,27.3L59.1,27.3z"/>
<path style="fill-rule:evenodd;clip-rule:evenodd;fill:#E41C3F;" d="M59,30c2.6,0,5,1,6.7,2.7c-1.3-0.7-2.8-1-4.3-1
	c-5.4,0-9.8,4.3-9.8,9.7c0,2.8,1.2,5.3,3,7.1c-3.2-1.6-5.4-4.9-5.4-8.8C49.2,34.4,53.6,30,59,30L59,30z"/>
<path style="fill-rule:evenodd;clip-rule:evenodd;fill:#E41C3F;" d="M46.8,135.9c1.5,6.9,3.2,15.4,3.2,15.4l2.7-6.2l6.7,28.8
	l6.4-28.9l2.7,6.2c0,0,1.4-8,2.9-15C76.3,113.6,41.8,113.4,46.8,135.9L46.8,135.9z"/>
<g>
	<path style="fill-rule:evenodd;clip-rule:evenodd;fill:#C51533;" d="M75.6,67.9c0,0.9-0.1,1.8-0.2,2.7c3.7,0.2,7.3,0.2,10.6,0.2
		c-0.5-7.1-1.8-14.7-3.5-23.6c-1.3-6.8-9.5-33.2-17.9-43.2c-0.8-0.8-1.5-1.5-2.3-2.3l0,0C71.9,16.4,77,39.6,75.6,67.9z"/>
	<path style="fill-rule:evenodd;clip-rule:evenodd;fill:#C51533;" d="M74.1,78.1c-4.8,19.9-20.5,25.4-36.9,25.2
		c0.7,2,1.4,3.9,2.2,5.7l0.1,0.3h0l0,0c0,0.1,0.1,0.2,0.1,0.3v0l38.4,0.1c5.5-11.8,7.7-21.3,8-30.9C83.2,78.7,79,78.5,74.1,78.1z"/>
</g>
<path style="fill-rule:evenodd;clip-rule:evenodd;fill:#0627E7;" d="M31,71.4c-0.4,12.4,2.1,23.5,8.8,38.2l38.4,0.1
	c5.7-12.4,7.9-22.2,8-32.4C64.9,79.1,41,73.9,31,71.4z"/>
<path style="fill-rule:evenodd;clip-rule:evenodd;fill:#0627E7;" d="M21.7,61.9c1.6,3.1,0.4,6.9-2.7,8.5c-3.1,1.6-6.9,0.4-8.5-2.7
	c-1.6-3.1-0.4-6.9,2.7-8.5C16.4,57.6,20.1,58.9,21.7,61.9L21.7,61.9z"/>
<g>
	<path style="fill-rule:evenodd;clip-rule:evenodd;fill:#0627E7;" d="M19,70.4c1.9-1,3.1-2.8,3.4-4.8c-5.8-2.3-10.2-4.9-13.1-7.3
		C5.3,55,3.9,50.3,9.1,46.9C13.6,44,19.8,43,25,42C10.5,43.9,0.7,48.4,0,54.4C-0.6,60,6.5,65.9,18.4,70.7
		C18.6,70.6,18.8,70.5,19,70.4z"/>
	<path style="fill-rule:evenodd;clip-rule:evenodd;fill:#0627E7;" d="M98.2,49.7c5.1,2.2,17.7,7.6,16.9,14.4
		c-1,9-24.9,12.4-56.6,9.6c-13.4-1.2-25.1-4-34-7.4c-0.2,2-1.4,3.9-3.3,4.9c-0.2,0.1-0.3,0.2-0.5,0.2c10,3.7,22.9,6.7,37.2,8.2
		c33.1,3.6,61-2,62.2-12.5C120.7,61.2,112.1,54.7,98.2,49.7z"/>
</g>
<path style="fill-rule:evenodd;clip-rule:evenodd;fill:#0627E7;" d="M19.3,51.2c0.8,1.6,0.2,3.5-1.4,4.3c-1.6,0.8-3.5,0.2-4.3-1.4
	c-0.8-1.6-0.2-3.5,1.4-4.3C16.6,49,18.5,49.6,19.3,51.2L19.3,51.2z"/>
<path style="fill-rule:evenodd;clip-rule:evenodd;fill:#0627E7;" d="M30,87.2c0,0,2.8,14.2,7.1,22c0,0-14.1,13-17.5,12.2
	C16.3,120.6,30,87.2,30,87.2L30,87.2z"/>
<path style="fill-rule:evenodd;clip-rule:evenodd;fill:#0726A5;" d="M34.5,103.3c-1.3,3.7-7.9,11.1-15.4,16.5c0,0.8,0.1,1.3,0.4,1.4
	c0,0,0,0,0,0c0,0,0.1,0,0.1,0c3.4,0.8,17.5-12.2,17.5-12.2C36.1,107.5,35.3,105.5,34.5,103.3z"/>
<path style="fill-rule:evenodd;clip-rule:evenodd;fill:#0726A5;" d="M88,87.1c0,0-2.9,14.4-7.3,22.3c0,0,13.8,12.8,17.1,11.9
	C101.1,120.5,88,87.1,88,87.1L88,87.1z"/>
<path style="fill-rule:evenodd;clip-rule:evenodd;fill:#0726A5;" d="M57.8,79.7c-4.6-0.5-9.1-1.1-13.3-1.9h0c0,0,14.9,6.6,28.2,8.8
	c0,0-3.3,20.4-35.5,16.7c0,0,0,0.1-0.1,0.2c0.8,2,1.7,4,2.6,6.2l38.4,0.1c5.1-11.1,7.4-20.2,7.9-29.2C77.6,81.1,67.9,80.8,57.8,79.7
	z"/>
</svg>
