<svg xmlns="http://www.w3.org/2000/svg" xmlns:xlink="http://www.w3.org/1999/xlink" width="79" height="79" viewBox="0 0 79 79"><defs><path id="fam6a" d="M1230 1055.58c0 2.6-3.36 4.98-8.93 6.82v.12l-.6.07c-6.86 2.16-16.85 3.52-27.97 3.52-9.2 0-17.63-.93-24.16-2.48a5.82 5.82 0 0 1-9.73-3.54c-2.31-1.36-3.61-2.9-3.61-4.51 0-2.74 3.72-5.24 9.82-7.11v-.34s10.32-5.77 21.5-7.57a6.7 6.7 0 0 0 13.24.1c11.44 1.88 21.51 7.47 21.51 7.47v12.45c8.44-2.54 9.2-6.36 4.47-9.75l-1.25-.85c3.62 1.63 5.71 3.54 5.71 5.6zm-67.86-5.65c-3.49 1.63-6.32 4.9-3.34 7.81a5.81 5.81 0 0 1 6.02-4.2v-5.03c-1.05.58-1.94 1.08-2.68 1.42zm-8.64 11.07a2.5 2.5 0 1 1 0 5 2.5 2.5 0 0 1 0-5z"/><path id="fam6c" d="M1180 1033.75h25.9l-7.15 35.96h-11.6z"/><path id="fam6d" d="M1192.5 987h.9c17.69 0 24.1 28.25 24.1 54.84l-.27 2.89a65.17 65.17 0 0 0-17.59-5.1v-8.48c4.18-3.74 7.36-9.15 7.36-9.15v-12s-2.8-.7-4.68-3.22c-2.12-2.85-3.57-7.2-3.57-7.2s-2.51 4.44-7.14 7.2c-5.16 3.07-12.61 4.22-12.61 4.22v12s3.12 5.4 7.25 8.85v7.77c-6.72.97-13.2 3.24-17.59 5.05l-.27-2.83c0-26.84 6.92-54.84 24.11-54.84z"/><path id="fam6e" d="M1192.5 991.5c8.88 0 16.07 7.24 16.07 16.18v3.6a3 3 0 0 1 2.68 2.99v2.99a3 3 0 0 1-2.66 2.98c-.04 2.18-.35 5.75-1.8 7.21-2.54 2.56-6.54 3.86-8.19 4.31a1.79 1.79 0 0 1-3.42-.71 1.78 1.78 0 1 1 3.25-1.02c1.27-.31 4.37-1.26 6.57-3.47 1.7-1.72 2.01-4.65 2.04-6.31h-.04V1007c0-5.86-6.22-13.7-14.5-13.7-7.64 0-13.5 7-13.5 14.7v12.05a3 3 0 0 1-1.11.21h-.25a3 3 0 0 1-3-3v-2.99a3 3 0 0 1 2.36-2.93V1008c0-8.94 6.62-16.5 15.5-16.5z"/><clipPath id="fam6b"><use xlink:href="#fam6a"/></clipPath></defs><g><g transform="translate(-1151 -987)"><use fill="#0627e7" xlink:href="#fam6a"/></g><g clip-path="url(#fam6b)" transform="translate(-1151 -987)"><use fill="#0625a4" xlink:href="#fam6c"/></g><g transform="translate(-1151 -987)"><use fill="#e31c3e" xlink:href="#fam6d"/></g><g transform="translate(-1151 -987)"><use fill="#fdfeff" xlink:href="#fam6e"/></g></g></svg>